Coordinates
version=1
nRows=15
nColumns=34
inDegrees=no

Units are S.I. units (second, meters, Newtons, ...)
If the header above contains a line with 'inDegrees', this indicates whether rotational values are in degrees (yes) or radians (no).

endheader
time	pelvis_tilt	pelvis_list	pelvis_rotation	pelvis_tx	pelvis_ty	pelvis_tz	hip_flexion_r	hip_adduction_r	hip_rotation_r	knee_angle_r	ankle_angle_r	subtalar_angle_r	mtp_angle_r	hip_flexion_l	hip_adduction_l	hip_rotation_l	knee_angle_l	ankle_angle_l	subtalar_angle_l	mtp_angle_l	lumbar_extension	lumbar_bending	lumbar_rotation	arm_flex_r	arm_add_r	arm_rot_r	elbow_flex_r	pro_sup_r	arm_flex_l	arm_add_l	arm_rot_l	elbow_flex_l	pro_sup_l
0.98	0.257505	0.20109	-0.0687128	0.933271	0.918102	-0.238844	0.305628	-0.351992	-0.0803745	1.03241	0.105125	-0.266347	-0.0977364	-0.365285	0.282266	0.0559103	-0.0216525	0.160992	-0.0346217	-0.0977548	-0.560373	-0.403055	-0.2326	0.15182	-0.218777	0.26595	0.538296	1.14399	0.327399	-0.31633	0.229675	0.517751	1.08109
0.99	0.255967	0.195686	-0.0679023	0.942736	0.917828	-0.239021	0.315401	-0.341841	-0.0884562	0.98913	0.10875	-0.266092	-0.0977336	-0.376254	0.276486	0.0573717	-0.0211503	0.170714	-0.0316905	-0.0977517	-0.56025	-0.394793	-0.233359	0.149337	-0.219013	0.247987	0.539812	1.13679	0.334005	-0.317602	0.24584	0.519494	1.08321
1	0.254815	0.189586	-0.0680113	0.952247	0.917475	-0.23909	0.323101	-0.329961	-0.0955	0.943628	0.110729	-0.266096	-0.0977307	-0.387563	0.270244	0.0576406	-0.0206353	0.180524	-0.0286944	-0.0977486	-0.560046	-0.386026	-0.232348	0.147648	-0.219594	0.232322	0.540344	1.12899	0.340491	-0.317752	0.260462	0.520352	1.08652
1.01	0.254096	0.182748	-0.068802	0.961815	0.917053	-0.239066	0.32868	-0.316421	-0.101751	0.896307	0.110972	-0.266177	-0.0977278	-0.39935	0.263433	0.0566823	-0.0201257	0.190493	-0.0251867	-0.0977455	-0.559911	-0.376596	-0.229839	0.146761	-0.22051	0.218938	0.539856	1.12087	0.346627	-0.316743	0.272762	0.520494	1.09144
1.02	0.253827	0.175163	-0.0700251	0.97145	0.916567	-0.238965	0.332157	-0.301401	-0.10755	0.847609	0.109562	-0.265936	-0.0977249	-0.411728	0.255973	0.0544691	-0.019648	0.200673	-0.0206718	-0.0977424	-0.559975	-0.366387	-0.226151	0.14666	-0.221699	0.207672	0.538347	1.11274	0.35219	-0.314624	0.282101	0.520111	1.09835
1.03	0.253981	0.166874	-0.071432	0.981163	0.916024	-0.238799	0.333646	-0.285167	-0.113284	0.797994	0.106814	-0.264701	-0.0977221	-0.424744	0.247821	0.0510013	-0.0192346	0.21108	-0.0146672	-0.0977393	-0.560324	-0.355342	-0.221625	0.147303	-0.223066	0.198237	0.535846	1.10487	0.356987	-0.311526	0.288065	0.519401	1.10739
1.04	0.254462	0.15798	-0.0727852	0.990961	0.915421	-0.238584	0.333373	-0.268056	-0.119326	0.747915	0.103294	-0.261524	-0.0977192	-0.438342	0.238988	0.0463357	-0.0189181	0.221676	-0.00678522	-0.0977362	-0.560976	-0.343468	-0.216604	0.148625	-0.224484	0.190244	0.532422	1.09751	0.360877	-0.307646	0.290528	0.51855	1.11849
1.05	0.255094	0.148651	-0.0738661	1.00085	0.914753	-0.238334	0.331692	-0.250454	-0.125956	0.6978	0.0997719	-0.255269	-0.0977163	-0.452328	0.229548	0.0406209	-0.0187215	0.232359	0.00317063	-0.0977331	-0.561857	-0.330853	-0.211416	0.150543	-0.225813	0.183255	0.528167	1.09086	0.363785	-0.303231	0.289678	0.51772	1.13122
1.06	0.255614	0.139128	-0.0744813	1.01083	0.914005	-0.238061	0.329073	-0.232784	-0.133288	0.648034	0.0971161	-0.244782	-0.0977134	-0.466358	0.219647	0.0341287	-0.0186447	0.242959	0.0151125	-0.09773	-0.562797	-0.317658	-0.20636	0.152957	-0.226914	0.176822	0.523195	1.08506	0.365714	-0.298548	0.286007	0.517042	1.14478
1.07	0.255685	0.129716	-0.0744645	1.02091	0.913158	-0.23778	0.326069	-0.215481	-0.141202	0.598946	0.0961624	-0.229125	-0.0977106	-0.479948	0.209501	0.0272695	-0.0186473	0.253249	0.0286039	-0.0977269	-0.563548	-0.30412	-0.201694	0.155759	-0.22766	0.170535	0.517628	1.08018	0.366746	-0.293854	0.280261	0.516609	1.15805
1.08	0.25494	0.120758	-0.073673	1.03107	0.912195	-0.237505	0.323249	-0.198974	-0.149319	0.550798	0.097571	-0.207805	-0.0977077	-0.49253	0.199375	0.0205715	-0.0186324	0.262975	0.0428644	-0.0977238	-0.563825	-0.290523	-0.197628	0.158832	-0.227945	0.164055	0.511589	1.07627	0.367025	-0.289376	0.273355	0.516473	1.16973
1.09	0.253046	0.112589	-0.0719793	1.04133	0.911103	-0.237249	0.321089	-0.183644	-0.157012	0.503774	0.101714	-0.180962	-0.0977048	-0.503537	0.189537	0.0145994	-0.0184334	0.271907	0.0568927	-0.0977207	-0.563367	-0.277152	-0.194321	0.162056	-0.227703	0.15713	0.505208	1.07329	0.366742	-0.285285	0.266264	0.516634	1.17856
1.1	0.249796	0.105456	-0.069257	1.05168	0.909875	-0.237025	0.319828	-0.169764	-0.163487	0.45795	0.108613	-0.149424	-0.097702	-0.512525	0.180176	0.00979143	-0.0178087	0.279927	0.0697584	-0.0977176	-0.562015	-0.264209	-0.191874	0.165314	-0.226914	0.149607	0.498626	1.07112	0.366102	-0.281673	0.259864	0.517025	1.18379
1.11	0.245135	0.0994849	-0.0653848	1.06213	0.908519	-0.236845	0.319432	-0.157484	-0.167895	0.413332	0.117963	-0.11462	-0.0976991	-0.519263	0.171371	0.00638636	-0.0164487	0.287044	0.0807932	-0.0977145	-0.559726	-0.251782	-0.190326	0.168487	-0.225609	0.141415	0.491997	1.06951	0.365287	-0.278552	0.254851	0.517512	1.18527
1.12	0.239177	0.094674	-0.0602753	1.07272	0.907055	-0.236716	0.319607	-0.146849	-0.169454	0.369934	0.129196	-0.0783895	-0.0976962	-0.523793	0.163104	0.00442796	-0.0139965	0.29335	0.0896996	-0.0977114	-0.55655	-0.239848	-0.18966	0.171447	-0.223863	0.132551	0.485481	1.06819	0.364409	-0.275868	0.251689	0.517925	1.18341
